<svg xmlns="http://www.w3.org/2000/svg" viewBox="0 0 512 512" width="64" height="64">
  <path fill="#fff" opacity=".75" d="M275 64l186 58v267l-186 57zM65.9 79.2l126.6-37.8.5 140.6-118 27z"/>
  <g fill="#6e4327">
    <path d="M499.8 258v139.5c0 17.7-7.2 26.3-24.4 30.9-17.1 4.6-34 10.3-51 15.4-9.9 3-19.8 5.7-29.6 8.7-11.8 3.5-23.5 7.2-35.3 10.7-11 3.3-22 6.4-33 9.7-6.1 1.8-12.1 3.7-18.1 5.5-14 4-28 8.2-42.1 12-10.9 3-21.5-.1-31.9-3-11.8-3.3-23.5-7-35.2-10.6-10.9-3.3-21.9-6.7-32.8-10-11.1-3.3-22.3-6.5-33.4-9.8-5.9-1.7-11.8-3.5-17.7-5.2-17-5.1-34.1-10-51-15.2-11.7-3.6-23.6-7-35-11.4-9.2-3.5-13.7-11.2-14.9-20.8-.2-1.6-.1-3.3-.1-5V117c0-8 1.5-15.4 7.7-20.8 2.8-2.5 6.1-5 9.6-6.1C46.3 85.4 61.2 81.4 76 77c6-1.8 12.1-3.6 18-5.8 7.1-2.7 9.2-1.4 9.2 5.9v98.5c0 7.4 1.1 8.1 8.2 6.7 9.6-1.9 19.3-3.6 29-5 8.8-1.3 10.1-2.6 10.1-11.4 0-34.7.1-69.3-.1-104 0-5.3 1.6-8.1 7-9.6 17.2-4.8 34.3-10.1 51.5-15.4 10.8-3.3 21.4-7.2 32.3-10.1 11.2-3.1 22.7-3.2 33.9.6 6 2 12 3.9 18 5.7 12.5 3.8 25 7.7 37.6 11.4 10.8 3.2 21.7 6 32.5 9.3 10.8 3.2 21.5 6.8 32.3 10.1 10.3 3.2 20.6 6.3 31 9.3 11.3 3.4 22.6 6.6 33.9 10 6.4 1.9 12.6 4.2 19 5.9 13.6 3.7 20.7 12.6 20.7 26.8-.3 47.1-.3 94.6-.3 142.1zm-215.7-.3s-.1 0 0 0v164.9c0 6.4 1.8 7.6 8 5.5 6.6-2.2 13.2-4.5 19.9-6.4 15.4-4.6 30.9-8.9 46.4-13.5 22-6.5 43.9-13.2 65.8-19.8 6-1.8 12-3.9 18-5.9 3.9-1.3 5-4 5-8.1-.1-76.8-.1-153.6-.1-230.4 0-1.3-.1-2.7 0-4 .2-4.1-1.5-6.3-5.7-7.4-6.1-1.5-12.1-3.6-18.1-5.4-11.1-3.4-22.2-6.8-33.3-10.1-11.1-3.3-22.3-6.5-33.4-9.8-11.5-3.4-22.9-7-34.3-10.4-10.2-3.1-20.4-5.9-30.6-9.2-6.7-2.2-7.6-1.9-7.6 5.1v164.9z"/>
    <path d="M391.1 221v53c0 6 1 7.1 6.9 7 1.2 0 2.3-.1 3.5-.1 5.6.2 7.9 3.6 5.7 8.7-7 16.1-14.2 32.2-21.3 48.3-2.9 6.7-5.6 13.5-8.8 20.1-.9 1.9-2.9 4-4.7 4.4-1.3.2-3.7-2-4.6-3.7-6.3-11.7-12.4-23.5-18.5-35.3-4.8-9.3-9.4-18.7-14.4-27.9-3.8-7-1.4-11.8 6.5-12.4 11.6-.9 11.6-.9 11.6-12.5V160.7c0-9.6 3.3-11.8 12.4-9.2 4.5 1.3 9.2 1.6 13.7 2.6 9.7 2 11.9 4.7 11.9 14.6.1 17.4.1 34.8.1 52.3z"/>
  </g>
</svg>
